<svg preserveAspectRatio="none" width="100%" height="100%" overflow="visible" style="display: block;" viewBox="0 0 187 132" fill="none" xmlns="http://www.w3.org/2000/svg">
<g id="&#225;&#132;&#137;&#225;&#133;&#161;&#225;&#134;&#188;&#225;&#132;&#137;&#225;&#133;&#161;&#225;&#134;&#188;&#225;&#132;&#134;&#225;&#133;&#174;&#225;&#134;&#171;&#225;&#132;&#146;&#225;&#133;&#170;@4x 1 [Vectorized]">
<path id="Vector" d="M53.8275 21.4506C56.1708 21.2546 61.5848 21.2935 63.9444 21.4015C66.5922 21.5227 77.9687 20.9207 79.6996 21.6909C80.2121 22.4109 79.3279 22.9931 78.7569 23.2846C68.4618 28.5414 57.6139 32.5501 47.2632 37.7046C45.4447 38.6101 43.3723 39.9361 41.8072 41.287C38.6967 43.9722 39.0567 48.7705 41.8999 51.4974C46.9549 55.8843 54.8014 57.4777 60.9715 59.5802C68.7131 62.2193 77.2174 64.9254 83.0161 71.0561C91.0595 79.5602 91.5501 95.6774 83.0026 104.031C77.8264 109.09 69.8141 111.548 62.7814 112.268C56.0377 112.96 49.307 112.26 42.5939 112.172C40.278 112.167 37.9905 112.165 35.5787 112.198C30.5758 112.268 23.1858 113.407 18.7139 111.1C16.6138 110.017 16.6533 97.552 18.2938 96.5205C21.971 94.2086 29.7035 95.8695 34.0624 96.0129C40.4724 96.3536 45.6009 96.8019 52.155 96.603C57.3592 96.4451 68.0562 95.4161 67.1226 87.5719C66.8775 85.5132 64.1807 82.2039 62.3663 81.0805C50.7394 73.8821 35.6259 73.7638 25.01 64.6224C15.8349 56.7204 15.1842 41.2019 23.6713 32.5389C31.772 24.1911 42.6892 22.055 53.8275 21.4506Z" fill="var(--fill-0, #95B658)"/>
<path id="Vector_2" d="M144.617 20.6817L144.789 20.6737C148.195 20.5236 151.356 21.1289 154.723 21.3658C158.023 21.598 164.371 20.5279 166.873 22.907C167.73 23.7208 168.037 25.1036 168.064 26.2454C168.109 28.1221 167.903 34.3462 166.678 35.5816C164.104 38.1779 150.891 36.9309 146.866 36.8895C137.942 36.7977 128.329 38.2023 121.677 44.7673C117.938 48.3846 115.807 53.3595 115.763 58.5714C115.74 60.0355 116.03 61.5505 116.018 63.0385C114.764 67.3159 100.995 64.0836 97.3221 64.615C95.1384 64.3447 93.8854 63.7628 93.99 61.5388C95.4108 31.3024 116.837 21.8015 144.617 20.6817Z" fill="var(--fill-0, #95B658)"/>
<path id="Vector_3" d="M98.2124 83.5707C99.6778 83.4217 101.657 83.6964 103.145 83.8157C104.845 83.9468 106.549 84.0159 108.254 84.0226L126.935 84.0002C130.165 83.9721 133.393 83.8021 136.624 83.7559C140.429 83.7015 166.786 83.5039 167.745 84.3561C168.884 85.3669 167.753 89.013 167.717 90.4035C167.694 91.3109 167.933 92.2538 167.993 93.165C168.026 93.6771 167.998 94.1767 167.623 94.5685C166.855 95.3687 165.17 95.1802 164.171 95.1787C159.741 95.1284 155.933 95.0535 150.956 95.0539C134.542 95.0298 118.014 96.369 101.657 94.5767C98.409 94.2207 95.5718 97.0153 94.547 92.4673C93.9464 89.8023 94.3998 87.3989 94.8844 84.7689C95.998 83.8624 96.8614 83.7643 98.2124 83.5707Z" fill="var(--fill-0, #95B658)"/>
<path id="Vector_4" d="M98.0776 69.6562C101.524 69.1456 106.485 70.1054 109.978 70.3028C115.679 70.6248 121.206 69.7567 126.895 69.6007C135.89 69.3541 144.894 69.7958 153.867 69.8472C156.433 69.8601 158.998 69.8542 161.562 69.8297C162.479 69.8132 166.592 69.4366 166.955 70.2204C168.082 72.6555 167.684 77.4991 167.285 80.0339C165.948 80.3323 164.652 80.5065 163.291 80.6458C147.377 81.964 131.945 80.6823 116.046 81.1877C113.686 81.2628 111.23 80.948 108.871 81.0354C105.049 81.1769 101.204 81.4189 97.3832 81.1375C94.2689 80.9781 94.5288 79.537 94.6194 76.7931C94.6542 75.7399 94.6393 71.4269 94.6485 70.6128C94.6546 70.0631 97.2677 69.755 98.0776 69.6562Z" fill="var(--fill-0, #FAF5E6)"/>
<path id="Vector_5" d="M164.279 96.4788C165.79 96.389 168.698 96.2446 169.423 97.8945C169.371 98.9221 168.242 99.2831 167.353 99.2854C162.716 99.2976 158.072 99.227 153.435 99.2818C152.074 99.2978 150.662 99.4764 149.288 99.5221C138.571 99.9762 127.845 100.181 117.119 100.137C113.714 100.106 110.251 99.9288 106.84 99.8577C105.25 99.8247 103.433 99.5799 101.869 99.6581C100.726 99.7152 99.2171 100.638 98.5199 101.543C97.6679 102.648 97.5744 104.158 97.7472 105.497C97.8932 106.63 98.3291 108.912 99.4954 109.353C100.679 109.8 102.194 109.515 103.499 109.562C105.656 109.64 107.842 109.758 109.993 109.725C112.528 109.685 115.002 109.517 117.544 109.528C121.466 109.546 125.414 109.484 129.333 109.553C134.856 109.666 140.382 110.057 145.904 110.053C147.947 110.052 149.992 110.057 152.035 110.055C154.123 110.053 156.228 110.144 158.313 110.086C161.401 110 164.483 109.638 167.578 109.828C168.545 109.888 168.825 110.048 169.583 110.651C169.618 110.815 169.65 110.98 169.679 111.146C169.894 112.394 168.265 112.616 167.344 112.656C161.022 112.988 154.726 112.824 148.407 112.698C138.191 112.495 127.956 112.835 117.745 112.945C111.664 113.011 105.338 112.627 99.255 112.401C95.9892 112.273 94.3768 108.428 94.221 105.591C93.6856 95.8486 100.018 96.5953 107.26 96.6249L117.546 96.6401L146.568 96.5514C152.478 96.5497 158.386 96.7811 164.279 96.4788Z" fill="var(--fill-0, #95B658)"/>
<path id="Vector_6" d="M102.917 101.265C104.765 101.094 107.012 101.198 108.905 101.206L118.739 101.219L155.941 101.555C159.794 101.559 163.309 101.678 167.18 101.565C166.94 102.953 166.716 104.324 166.987 105.722C167.102 106.31 167.356 107.189 167.099 107.73C166.475 108.332 164.962 108.188 164.05 108.194C158.909 108.304 153.768 108.341 148.625 108.304L126.57 108.303C119.183 108.299 111.748 108.374 104.359 108.358C103.291 108.356 101.046 108.074 100.173 107.486C99.0238 106.711 98.9805 103.19 99.7387 102.12C100.283 101.398 101.97 101.318 102.917 101.265Z" fill="var(--fill-0, #FAF5E6)"/>
<path id="Vector_7" d="M95.5605 19.2115C96.4518 19.1018 97.1197 19.3013 97.8538 19.8258C98.3982 20.215 98.6814 20.7575 98.7866 21.4135C99.1488 23.672 96.1827 32.5406 94.6717 34.5772C94.0538 35.41 92.8912 35.7144 91.9165 35.932C88.353 36.7276 83.2275 37.041 79.5006 37.3987C71.7331 38.144 63.9837 38.7967 56.2648 39.964C55.2247 40.0064 53.0163 40.3001 52.5155 39.1644C52.4879 38.2929 53.011 37.918 53.7214 37.5169C55.7174 36.3896 57.8655 35.5195 59.9212 34.5113C63.8875 32.5658 67.9023 30.769 71.9852 29.0825C73.6248 28.4051 75.2229 27.5742 76.8548 26.8999C83.0872 24.3253 89.2201 21.4996 95.5605 19.2115Z" fill="var(--fill-0, #2F322A)"/>
</g>
</svg>
