<svg preserveAspectRatio="none" width="100%" height="100%" overflow="visible" style="display: block;" viewBox="0 0 299.301 193" fill="none" xmlns="http://www.w3.org/2000/svg">
<g id="&#225;&#132;&#137;&#225;&#133;&#161;&#225;&#134;&#188;&#225;&#132;&#137;&#225;&#133;&#161;&#225;&#134;&#188;&#225;&#132;&#134;&#225;&#133;&#162;&#225;&#132;&#128;&#225;&#133;&#165;&#225;&#132;&#140;&#225;&#133;&#181;&#225;&#134;&#171;@4x 1 [Vectorized]">
<path id="Vector" d="M118.421 27.2418C127.167 26.8193 137.198 27.1879 146.012 27.2499C151.215 27.2865 158.204 27.1934 163.052 28.5576C163.248 29.4883 163.417 30.5475 163.416 31.5012C163.409 37.0206 163.675 42.5853 162.835 48.061C162.619 49.4672 162.367 50.7741 162.234 52.1946C157.296 52.9444 152.37 52.9191 147.39 52.9221C139.202 52.9272 131.027 52.5855 122.844 52.582C112.899 52.5774 87.9096 53.0618 80.6638 59.5433C78.5293 61.4526 77.0961 64.1041 76.9706 66.9957C76.8155 70.5705 78.6901 73.7286 81.2931 76.0286C90.3261 84.0089 112.206 88.1675 123.979 92.7802C131.81 95.8484 139.419 99.7162 145.206 105.975C151.857 113.166 154.996 122.438 154.601 132.192C154.269 140.385 150.987 148.855 144.877 154.478C131.022 167.228 104.11 167.18 86.1458 166.457C72.1057 166.114 55.7821 167.446 42.3767 165.793C40.4604 159.436 40.2098 147.721 42.5243 141.37C42.8083 140.591 45.5031 142.037 46.1773 141.973C62.7171 140.404 79.1954 143.147 95.7713 142.4C101.301 142.161 113.27 141.068 116.581 136.333C127.496 120.726 93.7335 112.596 84.2658 109.701C80.4369 108.516 76.6481 107.205 72.9059 105.77C57.4865 99.7844 44.2302 90.6273 43.6789 72.5535C43.1257 62.0467 46.257 52.3426 53.6892 44.6241C70.3381 27.334 96.3405 27.8305 118.421 27.2418Z" fill="var(--fill-0, #30312B)"/>
<path id="Vector_2" d="M235.942 62.6685C244.038 62.3586 251.918 63.0068 260.047 62.7263C259.408 66.4144 260.448 70.3675 259.711 74.0658C259.391 75.6732 258.55 77.1702 256.92 77.7044C254.008 78.6575 250.154 78.1388 247.108 78.1249C241.913 78.1013 236.646 77.9187 231.464 78.2647C223.594 78.7906 213.934 80.7799 207.303 85.1599C201.949 88.6971 198.456 93.6436 197.165 99.9455C195.607 107.558 196.594 115.884 200.914 122.426C206.785 131.317 217.155 137.738 227.065 141.196C229.911 142.19 232.812 142.861 235.746 143.528C238.483 144.15 241.274 144.944 244.09 145.02C250.508 145.193 256.965 145.045 263.387 145.031C266.24 145.025 269.55 144.667 272.33 145.263C272.952 145.396 273.478 145.59 273.824 146.147C275.031 148.081 274.984 162.458 274.356 165.086C272.066 166.829 267.115 167.433 264.291 167.736C260.369 168.008 256.441 168.217 252.511 168.364C212.939 169.538 162.777 155.567 161.509 107.412C161.251 97.6178 163.612 81.2313 170.038 73.7633C173.751 69.4485 187.556 67.6486 193.33 66.7296C203.506 65.0099 213.755 63.7497 224.046 62.9531C227.623 62.7118 232.252 62.7553 235.942 62.6685Z" fill="var(--fill-0, #30312B)"/>
<path id="Vector_3" d="M249 14.9169C250.493 14.8007 251.748 15.0861 253.043 15.8764C254.313 16.6527 255.063 17.792 255.406 19.2314C256.469 23.7006 250.968 42.9318 248.45 47.0626C247.496 48.6285 246.486 49.4693 244.78 50.1208C240.081 51.9166 230.837 53.0895 225.608 53.9865C215.653 55.7636 205.667 57.3704 195.658 58.806C187.739 59.9714 179.904 61.2777 172.034 62.742C170.284 63.0675 168.504 63.3159 166.776 63.7405C165.029 64.2279 161.311 64.8542 160.638 62.6138C159.978 60.4162 161.271 59.6033 162.889 58.6812C165.579 57.1484 168.325 55.7763 171.045 54.361L185.43 46.8198C202.495 37.7211 219.483 28.3716 237.021 20.2034C239.929 18.8486 246.369 15.4614 249 14.9169Z" fill="var(--fill-0, #96B758)"/>
</g>
</svg>
