<svg preserveAspectRatio="none" width="100%" height="100%" overflow="visible" style="display: block;" viewBox="0 0 209.992 144.9" fill="none" xmlns="http://www.w3.org/2000/svg">
<g id="&#225;&#132;&#137;&#225;&#133;&#161;&#225;&#134;&#188;&#225;&#132;&#137;&#225;&#133;&#161;&#225;&#134;&#188;&#225;&#132;&#137;&#225;&#133;&#165;&#225;&#132;&#128;&#225;&#133;&#161;@4x 1 [Vectorized]">
<path id="Vector" d="M78.0566 24.1168C85.001 23.9861 92.038 23.8777 98.9631 24.3767C101.592 24.5662 103.871 24.6107 106.433 25.3023C106.536 27.3904 106.622 41.1145 106.152 41.8648C104.818 42.5908 102.436 42.1447 100.922 42.2415C98.1729 42.4171 95.5174 43.1257 92.7287 43.2167C86.0276 43.4352 79.2821 42.7526 72.5713 42.7464C65.1469 42.7396 49.498 42.8726 44.1262 48.2796C42.7282 49.6868 42.2858 50.9457 42.2902 52.9134C42.2946 54.837 42.6421 56.4291 43.9674 57.9065C49.4918 64.0644 71.4496 68.6822 80.1063 72.3195C84.5922 74.2047 89.0352 76.9753 92.4853 80.417C97.4801 85.3995 100.024 91.6866 100.01 98.7396C99.9969 105.058 98.3429 110.817 93.7683 115.353C87.3105 121.758 77.5732 124.042 68.795 124.959C66.8232 125.165 64.7999 125.41 62.816 125.393C60.3191 125.371 57.9428 124.601 55.468 124.551C51.7636 124.478 48.052 124.847 44.3416 124.83C39.169 124.778 19.8502 126.347 16.3104 123.503C15.8056 123.098 15.6955 122.4 15.6452 121.791C15.4267 119.153 15.448 116.424 15.4311 113.776C15.4214 112.274 15.3106 110.672 15.5138 109.185C15.589 108.634 15.7182 108.084 16.0912 107.655C17.2231 106.356 19.7188 106.204 21.3328 106.141C25.2146 105.989 29.2113 106.966 33.1012 107.168C35.549 107.295 38.0134 107.224 40.4652 107.277C47.058 107.421 53.71 107.527 60.2981 107.164C64.1937 106.949 69.8754 106.469 72.6201 103.347C73.6357 102.192 74.2633 100.903 74.1565 99.3335C73.9299 96.0015 71.3135 92.9214 68.6116 91.1851C64.8854 88.7905 60.1916 87.3843 55.9929 86.0759C46.1334 83.0032 32.987 79.6943 25.1251 72.8375C20.2426 68.579 17.6354 63.4137 17.2143 56.9351C16.7908 50.4184 19.0903 43.2143 23.409 38.2999C33.0088 27.3761 49.0815 25.2645 62.8042 24.6409C64.701 24.5548 66.6004 24.6138 68.4981 24.5717C71.6712 24.5017 74.8879 24.3275 78.0566 24.1168Z" fill="var(--fill-0, #C6D14B)"/>
<path id="Vector_2" d="M169.276 24.2758C172.737 23.9154 177.152 24.4527 180.671 24.4906C183.876 24.5251 187.231 24.6266 190.395 25.03C191.67 25.1926 193.858 25.6362 193.801 27.1994C193.842 28.8188 193.47 30.18 193.42 31.8554C193.331 34.8772 194.715 38.6084 192.748 41.2947C190.508 43.9447 184.152 43.2715 181.003 43.332C173.407 43.4774 165.92 42.4937 158.346 43.46C150.451 44.4671 141.395 47.5491 136.221 53.8966C133.074 57.7601 131.331 63.1548 131.082 68.0947C130.968 70.362 132.558 71.4307 130.577 73.8497C126.817 76.3244 120.49 74.2231 116.344 73.9494C113.989 73.7942 111.613 74.0254 109.28 73.6911C107.25 73.411 105.414 73.073 105.518 70.5386C105.933 60.4446 108.787 49.9937 115.524 42.3315C126.673 29.6525 143.857 26.0187 159.932 24.6963C163.003 24.4439 166.195 24.4556 169.276 24.2758Z" fill="var(--fill-0, #C6D14B)"/>
<path id="Vector_3" d="M110.341 80.5762C116.434 80.1115 122.759 81.409 128.849 81.4876C133.308 81.5512 137.865 80.7725 142.278 80.6318C146.318 80.5031 150.661 80.6233 154.712 80.623L179.659 80.6294C181.499 80.6297 191.077 80.4579 192.307 80.803C194.017 82.1608 193.826 97.0159 192.983 98.2677C192.203 98.6869 189.632 98.8621 188.639 98.9526C171.446 101.209 152.935 99.0051 135.565 99.959C132.744 100.196 130.529 100.716 127.687 100.1C123.152 99.1183 110.458 101.035 106.874 99.1867C105.851 97.7276 106.672 84.7954 106.262 82.2631C106.011 80.7098 109.269 80.6362 110.341 80.5762Z" fill="var(--fill-0, #FBF4E7)"/>
<path id="Vector_4" d="M109.775 105.751C111.688 105.578 114.843 106.219 116.838 106.282C121.242 106.422 125.651 106.386 130.056 106.384L173.041 106.211L185.216 106.299C187.228 106.323 191.632 106.36 193.514 106.655C193.528 106.675 193.542 106.695 193.556 106.716C194.066 107.487 194.368 108.377 194.436 109.3C194.616 111.68 193.893 114.427 193.801 116.76C193.691 119.588 194.347 121.238 193.747 124.169C192.808 124.456 192.566 124.533 191.567 124.552L137.695 124.549C130.972 124.548 115.796 124.761 108.436 124.314C107.917 124.282 106.975 121.928 106.829 120.994C106.186 116.886 105.492 111.087 107.063 107.153C107.493 106.247 108.904 105.925 109.775 105.751Z" fill="var(--fill-0, #FBF4E7)"/>
</g>
</svg>
