<svg preserveAspectRatio="xMidYMid meet" width="198.067" height="139.3" overflow="visible" style="display: block;" viewBox="0 0 198.067 139.3" fill="none" xmlns="http://www.w3.org/2000/svg">
<g id="&#225;&#132;&#137;&#225;&#133;&#161;&#225;&#134;&#188;&#225;&#132;&#137;&#225;&#133;&#161;&#225;&#134;&#188;&#225;&#132;&#134;&#225;&#133;&#174;&#225;&#134;&#171;&#225;&#132;&#146;&#225;&#133;&#170;@4x 1 [Vectorized]">
<path id="Vector" d="M57.0131 22.6371C59.4951 22.4302 65.2295 22.4712 67.7287 22.5852C70.5332 22.7131 82.5831 22.0778 84.4164 22.8906C84.9592 23.6504 84.0227 24.2649 83.4179 24.5724C72.5135 30.12 61.0236 34.3504 50.0603 39.7899C48.1342 40.7455 45.9392 42.1448 44.2814 43.5704C40.9868 46.4042 41.3681 51.4678 44.3797 54.3455C49.7337 58.9751 58.0447 60.6566 64.5799 62.8753C72.7797 65.6604 81.7873 68.5162 87.9291 74.9859C96.4486 83.9602 96.9683 100.969 87.9149 109.785C82.4324 115.123 73.9458 117.717 66.4969 118.477C59.3541 119.207 52.2251 118.469 45.1147 118.375C42.6617 118.37 40.2389 118.368 37.6843 118.403C32.3853 118.477 24.558 119.679 19.8214 117.244C17.5971 116.101 17.6388 102.947 19.3764 101.859C23.2712 99.4187 31.4614 101.172 36.0782 101.323C42.8676 101.682 48.2996 102.155 55.2417 101.946C60.7538 101.779 72.0839 100.693 71.0951 92.4151C70.8355 90.2425 67.979 86.7502 66.0573 85.5646C53.7423 77.9681 37.7343 77.8433 26.4901 68.1963C16.772 59.8574 16.0828 43.4807 25.0722 34.3385C33.6523 25.529 45.2156 23.2748 57.0131 22.6371Z" fill="var(--fill-0, #95B658)"/>
<path id="Vector_2" d="M153.176 21.8254L153.358 21.8169C156.965 21.6585 160.313 22.2973 163.88 22.5473C167.375 22.7923 174.099 21.6631 176.749 24.1737C177.656 25.0325 177.982 26.4918 178.01 27.6968C178.058 29.6772 177.84 36.2455 176.542 37.5493C173.816 40.2891 159.821 38.9731 155.558 38.9295C146.106 38.8326 135.924 40.3149 128.878 47.243C124.918 51.0603 122.661 56.3103 122.614 61.8105C122.589 63.3555 122.897 64.9544 122.884 66.5246C121.556 71.0385 106.972 67.6275 103.082 68.1883C100.769 67.9031 99.4418 67.289 99.5525 64.942C101.057 33.0334 123.751 23.0071 153.176 21.8254Z" fill="var(--fill-0, #95B658)"/>
<path id="Vector_3" d="M104.025 88.1927C105.577 88.0354 107.673 88.3253 109.249 88.4513C111.05 88.5896 112.855 88.6625 114.661 88.6696L134.447 88.6459C137.869 88.6163 141.287 88.4369 144.71 88.3882C148.739 88.3307 176.657 88.1222 177.673 89.0215C178.879 90.0882 177.681 93.9359 177.643 95.4034C177.618 96.3609 177.871 97.356 177.935 98.3176C177.971 98.858 177.941 99.3852 177.544 99.7986C176.73 100.643 174.945 100.444 173.887 100.443C169.195 100.39 165.162 100.311 159.89 100.311C142.505 100.286 124.999 101.699 107.674 99.8073C104.233 99.4316 101.228 102.381 100.143 97.5813C99.5064 94.7689 99.9866 92.2326 100.5 89.4571C101.679 88.5005 102.594 88.397 104.025 88.1927Z" fill="var(--fill-0, #95B658)"/>
<path id="Vector_4" d="M103.882 73.5088C107.532 72.97 112.787 73.9829 116.487 74.1911C122.525 74.531 128.38 73.6149 134.405 73.4503C143.932 73.1901 153.469 73.6561 162.973 73.7104C165.691 73.724 168.407 73.7177 171.124 73.6919C172.095 73.6745 176.451 73.2771 176.836 74.1042C178.029 76.6741 177.608 81.7854 177.186 84.4604C175.77 84.7754 174.397 84.9591 172.955 85.1062C156.099 86.4973 139.754 85.1447 122.914 85.6781C120.414 85.7573 117.813 85.4251 115.314 85.5173C111.266 85.6667 107.194 85.922 103.147 85.625C99.848 85.4569 100.123 83.936 100.219 81.0404C100.256 79.929 100.24 75.3775 100.25 74.5183C100.257 73.9383 103.024 73.6131 103.882 73.5088Z" fill="var(--fill-0, #FAF5E6)"/>
<path id="Vector_5" d="M174.001 101.814C175.602 101.719 178.682 101.567 179.449 103.308C179.395 104.393 178.199 104.774 177.258 104.776C172.346 104.789 167.427 104.714 162.516 104.772C161.074 104.789 159.579 104.978 158.123 105.026C146.772 105.505 135.412 105.722 124.051 105.675C120.444 105.642 116.776 105.455 113.163 105.38C111.479 105.345 109.554 105.087 107.898 105.169C106.688 105.23 105.089 106.204 104.351 107.159C103.448 108.325 103.349 109.918 103.532 111.331C103.687 112.527 104.149 114.935 105.384 115.4C106.638 115.872 108.242 115.571 109.624 115.621C111.909 115.704 114.224 115.828 116.503 115.793C119.187 115.751 121.808 115.573 124.501 115.585C128.654 115.604 132.836 115.538 136.987 115.611C142.837 115.731 148.69 116.143 154.539 116.139C156.703 116.138 158.869 116.144 161.033 116.141C163.245 116.139 165.475 116.235 167.682 116.174C170.953 116.083 174.217 115.701 177.496 115.902C178.52 115.965 178.817 116.134 179.619 116.77C179.656 116.944 179.69 117.118 179.721 117.292C179.949 118.61 178.224 118.844 177.248 118.887C170.551 119.237 163.883 119.063 157.19 118.931C146.37 118.716 135.529 119.075 124.714 119.191C118.273 119.261 111.572 118.855 105.129 118.617C101.67 118.482 99.9623 114.424 99.7973 111.431C99.2301 101.149 105.937 101.937 113.607 101.968L124.503 101.984L155.242 101.891C161.502 101.889 167.76 102.133 174.001 101.814Z" fill="var(--fill-0, #95B658)"/>
<path id="Vector_6" d="M109.008 106.866C110.966 106.685 113.345 106.795 115.35 106.804L125.766 106.818L165.17 107.171C169.251 107.175 172.974 107.302 177.074 107.182C176.82 108.647 176.583 110.093 176.87 111.569C176.991 112.189 177.261 113.117 176.989 113.688C176.327 114.323 174.725 114.171 173.759 114.178C168.314 114.294 162.868 114.333 157.421 114.294L134.061 114.293C126.236 114.289 118.362 114.368 110.535 114.351C109.404 114.349 107.026 114.051 106.102 113.43C104.884 112.613 104.838 108.897 105.642 107.767C106.218 107.006 108.005 106.921 109.008 106.866Z" fill="var(--fill-0, #FAF5E6)"/>
<path id="Vector_7" d="M101.216 20.2751C102.16 20.1593 102.867 20.3697 103.645 20.9233C104.222 21.334 104.522 21.9065 104.633 22.5988C105.017 24.9821 101.875 34.3412 100.275 36.4904C99.6202 37.3694 98.3888 37.6905 97.3564 37.9202C93.582 38.7598 88.1531 39.0905 84.2056 39.468C75.9785 40.2545 67.7704 40.9433 59.5947 42.1752C58.4931 42.22 56.154 42.5299 55.6236 41.3314C55.5943 40.4117 56.1484 40.0161 56.9008 39.5927C59.0149 38.4031 61.2901 37.4849 63.4675 36.4209C67.6685 34.3679 71.921 32.4717 76.2455 30.6919C77.9822 29.9771 79.6749 29.1002 81.4033 28.3886C88.0046 25.6716 94.5004 22.6897 101.216 20.2751Z" fill="var(--fill-0, #2F322A)"/>
</g>
</svg>
