<svg preserveAspectRatio="xMidYMid meet" width="209.951" height="133.7" overflow="visible" style="display: block;" viewBox="0 0 209.951 133.7" fill="none" xmlns="http://www.w3.org/2000/svg">
<g id="&#225;&#132;&#137;&#225;&#133;&#161;&#225;&#134;&#188;&#225;&#132;&#137;&#225;&#133;&#161;&#225;&#134;&#188;&#225;&#132;&#134;&#225;&#133;&#161;&#225;&#132;&#131;&#225;&#133;&#161;&#225;&#134;&#188;@4x 1 [Vectorized]">
<path id="Vector" d="M90.5404 24.2255C93.7058 24.0302 105.212 23.7365 107.543 25.021C107.966 25.2544 108.352 25.5733 108.568 26.0148C110.001 28.9531 107.957 35.366 108.946 38.8859C108.321 39.8069 107.799 40.6658 106.888 41.3224C101.317 42.1128 92.7668 41.5266 86.9997 41.4301C81.9287 41.3557 76.8505 41.2109 71.781 41.6876C64.6905 42.3543 54.4669 41.79 49.8146 48.173C47.3263 51.5867 49.8809 55.6872 52.8377 57.7642C59.9929 62.7904 69.1351 64.6046 77.2338 67.5837C86.8801 71.0355 97.3081 76.0356 99.376 87.2026C100.467 93.1182 100.163 101.358 96.3892 106.385C87.499 118.227 68.899 117.607 55.5779 117.785C51.9172 117.798 46.4282 117.231 43.12 117.857C38.4225 118.969 31.0562 117.021 25.6284 117.32C24.3034 113.046 24.7764 110.751 24.8965 106.475C24.926 105.426 24.7978 104.384 24.7942 103.338C24.7928 102.905 24.8348 101.693 25.1229 101.418C25.5438 101.017 26.2585 100.929 26.8146 100.897C28.6436 100.79 30.5292 100.915 32.3604 100.956C34.4947 101.005 36.6379 100.97 38.7701 101.066C41.0863 101.171 43.3985 101.407 45.7159 101.51C50.7316 101.731 55.8499 101.598 60.8734 101.549C65.2211 101.508 72.2328 101.082 75.4228 97.7664C76.3104 96.8439 77.0135 95.5675 76.9589 94.2547C76.8568 91.7991 75.0508 89.4712 73.1853 88.0321C67.6423 83.7562 53.2145 79.8999 46.0307 77.0497C41.6282 75.3028 37.2204 73.2542 33.6997 70.0193C29.1356 65.8258 27.0136 59.7729 26.7749 53.6771C26.5344 47.5358 28.5602 41.1866 32.7614 36.6452C41.7035 26.9789 55.7112 25.5129 68.1106 24.858C75.5841 24.4631 83.0626 24.5176 90.5404 24.2255Z" fill="var(--fill-0, #30312B)"/>
<path id="Vector_2" d="M158.356 24.475C162.886 24.3148 167.162 24.5351 171.575 24.9946C175.342 25.387 184.624 23.5291 184.907 29.2838C185.019 31.575 184.802 37.7817 184.234 40.0237C181.49 41.2279 179.168 41.1883 176.256 41.4872C165.62 42.5789 155.426 40.2067 145.173 44.322C141.419 45.8283 139.518 46.779 136.39 49.5894C131.661 53.9152 128.842 59.9408 128.552 66.3432C128.101 75.0285 130.636 83.4179 136.613 89.9335C142.832 96.7117 153.903 101.11 162.933 102.502C165.015 102.703 167.193 102.538 169.27 102.598C174.637 102.753 180.239 102.346 185.579 102.618C186.406 104.978 186.556 111.526 186.236 114.016C186.104 115.403 186.079 116.114 185.505 117.379C184.368 117.941 180.145 118.192 178.684 118.28C153.327 119.804 118.23 115.941 108.511 87.8955C103.309 72.8836 105.554 53.1798 116.757 41.2033C127.286 29.948 143.217 24.9513 158.356 24.475Z" fill="var(--fill-0, #30312B)"/>
</g>
</svg>
