<svg preserveAspectRatio="xMidYMid meet" width="299.988" height="207" overflow="visible" style="display: block;" viewBox="0 0 299.988 207" fill="none" xmlns="http://www.w3.org/2000/svg">
<g id="&#225;&#132;&#137;&#225;&#133;&#161;&#225;&#134;&#188;&#225;&#132;&#137;&#225;&#133;&#161;&#225;&#134;&#188;&#225;&#132;&#137;&#225;&#133;&#165;&#225;&#132;&#128;&#225;&#133;&#161;@4x 1 [Vectorized]">
<path id="Vector" d="M111.509 34.4532C121.43 34.2664 131.483 34.1115 141.376 34.8245C145.131 35.0952 148.386 35.1587 152.047 36.1468C152.194 39.1297 152.316 58.7356 151.645 59.8074C149.74 60.8447 146.337 60.2073 144.174 60.3456C140.247 60.5964 136.453 61.6088 132.47 61.7388C122.897 62.0509 113.26 61.0757 103.673 61.0668C93.067 61.0571 70.7114 61.2471 63.0374 68.9714C61.0402 70.9818 60.4083 72.7801 60.4145 75.5912C60.4208 78.3392 60.9173 80.6136 62.8106 82.7242C70.7025 91.5211 102.071 98.118 114.437 103.314C120.846 106.007 127.193 109.965 132.122 114.882C139.257 122 142.891 130.981 142.871 141.057C142.853 150.083 140.49 158.311 133.955 164.791C124.729 173.94 110.819 177.203 98.2785 178.514C95.4616 178.808 92.5713 179.158 89.7372 179.133C86.1701 179.103 82.7754 178.002 79.24 177.931C73.948 177.826 68.6456 178.353 63.3451 178.329C55.9557 178.255 28.3574 180.496 23.3005 176.434C22.5794 175.855 22.4221 174.857 22.3502 173.988C22.0381 170.219 22.0686 166.321 22.0443 162.537C22.0306 160.392 21.8723 158.103 22.1626 155.979C22.2699 155.192 22.4545 154.406 22.9874 153.794C24.6043 151.937 28.1696 151.72 30.4753 151.63C36.0209 151.414 41.7304 152.808 47.2874 153.098C50.7842 153.279 54.3048 153.177 57.8074 153.254C67.2257 153.459 76.7285 153.61 86.1401 153.092C91.7053 152.785 99.822 152.099 103.743 147.639C105.194 145.989 106.09 144.148 105.938 141.906C105.614 137.146 101.876 132.745 98.0166 130.265C92.6934 126.844 85.9879 124.835 79.9898 122.966C65.9049 118.577 47.1243 113.85 35.8929 104.054C28.918 97.9706 25.1934 90.5916 24.5918 81.3364C23.9868 72.0269 27.2719 61.7353 33.4415 54.7147C47.1554 39.1093 70.1164 36.0928 89.7202 35.2019C92.43 35.0788 95.1434 35.1631 97.8544 35.1031C102.387 35.003 106.983 34.7542 111.509 34.4532Z" fill="var(--fill-0, #C6D14B)"/>
<path id="Vector_2" d="M241.822 34.6814C246.767 34.1665 253.074 34.9341 258.101 34.9883C262.68 35.0376 267.473 35.1825 271.993 35.7588C273.814 35.9911 276.939 36.6249 276.858 38.858C276.917 41.1714 276.385 43.116 276.315 45.5095C276.187 49.8264 278.164 55.1566 275.355 58.9942C272.154 62.7798 263.074 61.8182 258.576 61.9045C247.725 62.1123 237.029 60.707 226.208 62.0875C214.93 63.5262 201.993 67.929 194.601 76.9969C190.106 82.5162 187.615 90.2229 187.26 97.2799C187.097 100.519 189.368 102.046 186.538 105.501C181.167 109.037 172.129 106.035 166.205 105.644C162.842 105.422 159.447 105.752 156.115 105.275C153.214 104.875 150.591 104.392 150.74 100.771C151.333 86.3511 155.409 71.4213 165.034 60.4753C180.961 42.3624 205.51 37.1713 228.474 35.2822C232.861 34.9215 237.421 34.9383 241.822 34.6814Z" fill="var(--fill-0, #C6D14B)"/>
<path id="Vector_3" d="M157.63 115.109C166.334 114.446 175.369 116.299 184.069 116.411C190.44 116.502 196.95 115.39 203.254 115.189C209.026 115.005 215.229 115.177 221.017 115.176L256.656 115.185C259.284 115.186 272.967 114.94 274.724 115.433C277.168 117.373 276.895 138.595 275.69 140.383C274.576 140.982 270.903 141.232 269.484 141.361C244.923 144.585 218.478 141.436 193.664 142.799C189.634 143.137 186.47 143.88 182.41 143.001C175.931 141.598 157.797 144.336 152.676 141.696C151.216 139.611 152.389 121.137 151.803 117.519C151.444 115.3 156.099 115.195 157.63 115.109Z" fill="var(--fill-0, #FBF4E7)"/>
<path id="Vector_4" d="M156.822 151.073C159.554 150.826 164.061 151.742 166.912 151.832C173.203 152.032 179.502 151.981 185.794 151.978L247.201 151.73L264.594 151.857C267.469 151.89 273.759 151.943 276.448 152.366C276.468 152.394 276.488 152.423 276.509 152.451C277.236 153.554 277.669 154.825 277.766 156.143C278.023 159.544 276.99 163.468 276.858 166.801C276.701 170.841 277.639 173.198 276.782 177.385C275.439 177.795 275.094 177.905 273.666 177.932L196.707 177.927C187.103 177.927 165.423 178.23 154.908 177.592C154.168 177.547 152.821 174.184 152.612 172.849C151.694 166.98 150.703 158.697 152.947 153.076C153.562 151.782 155.577 151.323 156.822 151.073Z" fill="var(--fill-0, #FBF4E7)"/>
</g>
</svg>
