<svg preserveAspectRatio="none" width="100%" height="100%" overflow="visible" style="display: block;" viewBox="0 0 209.511 135.1" fill="none" xmlns="http://www.w3.org/2000/svg">
<g id="&#225;&#132;&#137;&#225;&#133;&#161;&#225;&#134;&#188;&#225;&#132;&#137;&#225;&#133;&#161;&#225;&#134;&#188;&#225;&#132;&#134;&#225;&#133;&#162;&#225;&#132;&#128;&#225;&#133;&#165;&#225;&#132;&#140;&#225;&#133;&#181;&#225;&#134;&#171;@4x 1 [Vectorized]">
<path id="Vector" d="M82.8947 19.0695C89.017 18.7737 96.0383 19.0318 102.208 19.0752C105.85 19.1008 110.743 19.0356 114.136 19.9905C114.274 20.642 114.392 21.3835 114.391 22.0511C114.386 25.9146 114.573 29.8099 113.985 33.6429C113.834 34.6272 113.657 35.5421 113.564 36.5365C110.107 37.0613 106.659 37.0436 103.173 37.0457C97.4413 37.0493 91.7192 36.8101 85.9912 36.8076C79.0296 36.8044 61.5368 37.1435 56.4647 41.6805C54.9706 43.017 53.9674 44.8731 53.8795 46.8972C53.7709 49.3996 55.0831 51.6103 56.9053 53.2202C63.2283 58.8064 78.5446 61.7174 86.7856 64.9464C92.2672 67.0941 97.5933 69.8015 101.645 74.1824C106.3 79.2166 108.497 85.7065 108.221 92.5345C107.988 98.2699 105.691 104.199 101.414 108.135C91.7153 117.06 72.8769 117.026 60.3022 116.52C50.474 116.28 39.0475 117.213 29.6637 116.055C28.3224 111.605 28.1469 103.405 29.767 98.9591C29.9659 98.4137 31.8523 99.4263 32.3242 99.3814C43.902 98.2827 55.4368 100.203 67.04 99.6799C70.9109 99.5131 79.2891 98.7475 81.6068 95.4335C89.2473 84.5084 65.6135 78.8175 58.9861 76.7907C56.3059 75.9615 53.6538 75.0438 51.0342 74.0392C40.2406 69.8493 30.9612 63.4393 30.5753 50.7877C30.188 43.4329 32.38 36.64 37.5825 31.2371C49.2368 19.134 67.4384 19.4815 82.8947 19.0695Z" fill="var(--fill-0, #30312B)"/>
<path id="Vector_2" d="M165.16 43.8684C170.826 43.6515 176.342 44.1053 182.033 43.9089C181.586 46.4906 182.314 49.2578 181.798 51.8466C181.574 52.9717 180.985 54.0197 179.844 54.3936C177.806 55.0608 175.108 54.6977 172.976 54.6879C169.339 54.6714 165.652 54.5436 162.025 54.7858C156.516 55.1539 149.754 56.5465 145.112 59.6125C141.364 62.0885 138.92 65.5511 138.016 69.9624C136.925 75.2913 137.616 81.1191 140.64 85.6989C144.75 91.9225 152.009 96.4171 158.946 98.838C160.938 99.5335 162.968 100.003 165.023 100.47C166.938 100.906 168.892 101.461 170.863 101.514C175.356 101.636 179.876 101.532 184.371 101.522C186.368 101.518 188.685 101.268 190.631 101.684C191.066 101.778 191.434 101.914 191.677 102.303C192.521 103.657 192.489 113.721 192.049 115.561C190.446 116.78 186.98 117.204 185.004 117.416C182.258 117.606 179.509 117.753 176.758 117.855C149.057 118.677 113.944 108.897 113.056 75.1891C112.876 68.333 114.528 56.8624 119.027 51.6348C121.626 48.6145 131.289 47.3545 135.331 46.7112C142.454 45.5074 149.629 44.6253 156.832 44.0677C159.336 43.8988 162.577 43.9293 165.16 43.8684Z" fill="var(--fill-0, #30312B)"/>
<path id="Vector_3" d="M174.3 10.443C175.345 10.3617 176.224 10.5615 177.13 11.1147C178.019 11.6581 178.544 12.4556 178.785 13.4632C179.529 16.5916 175.677 30.0534 173.915 32.945C173.247 34.0411 172.54 34.6297 171.346 35.0858C168.057 36.3428 161.586 37.1639 157.926 37.7917C150.957 39.0357 143.967 40.1605 136.96 41.1654C131.418 41.9811 125.932 42.8956 120.424 43.9206C119.199 44.1484 117.953 44.3223 116.743 44.6196C115.52 44.9607 112.918 45.3991 112.447 43.8309C111.984 42.2925 112.89 41.7235 114.022 41.0781C115.906 40.005 117.828 39.0446 119.732 38.0539L129.801 32.7751C141.747 26.406 153.638 19.8613 165.914 14.1436C167.95 13.1952 172.458 10.8241 174.3 10.443Z" fill="var(--fill-0, #96B758)"/>
</g>
</svg>
