<svg preserveAspectRatio="none" width="100%" height="100%" overflow="visible" style="display: block;" viewBox="0 0 326 208" fill="none" xmlns="http://www.w3.org/2000/svg">
<g id="&#225;&#132;&#137;&#225;&#133;&#161;&#225;&#134;&#188;&#225;&#132;&#137;&#225;&#133;&#161;&#225;&#134;&#188;&#225;&#132;&#134;&#225;&#133;&#161;&#225;&#132;&#131;&#225;&#133;&#161;&#225;&#134;&#188;@4x 1 [Vectorized]">
<path id="Vector" d="M140.586 37.6881C145.501 37.3843 163.367 36.9274 166.986 38.9258C167.644 39.2888 168.244 39.785 168.578 40.4718C170.804 45.0429 167.629 55.0196 169.165 60.4956C168.195 61.9285 167.384 63.2646 165.97 64.2861C157.319 65.5159 144.043 64.6038 135.088 64.4537C127.214 64.3379 119.329 64.1127 111.458 64.8543C100.448 65.8914 84.5732 65.0135 77.3493 74.9437C73.4857 80.2546 77.4523 86.6338 82.0434 89.8651C93.1536 97.6844 107.349 100.507 119.924 105.141C134.903 110.512 151.095 118.29 154.306 135.663C155.999 144.866 155.528 157.685 149.668 165.506C135.864 183.929 106.983 182.964 86.2983 183.24C80.6142 183.261 72.0911 182.378 66.9544 183.353C59.6603 185.082 48.2224 182.052 39.7944 182.517C37.737 175.868 38.4714 172.297 38.6579 165.645C38.7037 164.014 38.5046 162.393 38.4991 160.765C38.4969 160.092 38.5622 158.205 39.0094 157.778C39.663 157.155 40.7728 157.017 41.6363 156.967C44.4762 156.802 47.4041 156.995 50.2475 157.06C53.5614 157.135 56.8893 157.081 60.2 157.231C63.7966 157.394 67.3868 157.762 70.9852 157.921C78.7733 158.265 86.7206 158.058 94.5209 157.983C101.272 157.918 112.159 157.255 117.112 152.097C118.491 150.662 119.582 148.676 119.498 146.634C119.339 142.814 116.535 139.192 113.638 136.954C105.031 130.301 82.6285 124.302 71.474 119.868C64.6379 117.15 57.7938 113.963 52.327 108.931C45.2401 102.407 41.9452 92.9899 41.5746 83.5066C41.2012 73.9525 44.3467 64.0749 50.8701 57.0098C64.7549 41.9716 86.5053 39.691 105.758 38.6721C117.363 38.0578 128.975 38.1425 140.586 37.6881Z" fill="var(--fill-0, #30312B)"/>
<path id="Vector_2" d="M245.887 38.0764C252.92 37.8271 259.559 38.1698 266.412 38.8846C272.261 39.4952 286.673 36.6047 287.113 45.5574C287.288 49.1219 286.951 58.7778 286.069 62.2657C281.808 64.1391 278.203 64.0776 273.68 64.5425C257.165 66.2409 241.337 62.5505 225.416 68.9528C219.588 71.296 216.636 72.7752 211.778 77.1472C204.435 83.877 200.058 93.2512 199.609 103.212C198.909 116.724 202.844 129.775 212.125 139.911C221.781 150.456 238.971 157.299 252.993 159.465C256.226 159.777 259.608 159.52 262.833 159.614C271.166 159.855 279.865 159.222 288.157 159.645C289.441 163.317 289.674 173.503 289.177 177.378C288.972 179.535 288.934 180.642 288.042 182.609C286.276 183.483 279.719 183.874 277.451 184.01C238.077 186.382 183.582 180.372 168.49 136.741C160.412 113.387 163.899 82.733 181.295 64.1009C197.643 46.5907 222.379 38.8174 245.887 38.0764Z" fill="var(--fill-0, #30312B)"/>
</g>
</svg>
